<svg xmlns="http://www.w3.org/2000/svg" xmlns:xlink="http://www.w3.org/1999/xlink" viewBox="0 0 280 250" preserveAspectRatio="xMidYMid" style="display: block; shape-rendering: auto; background: transparent;" width="280" height="250"><style type="text/css">
  .ld-text text {
    text-anchor: middle;
    dominant-baseline: middle;
    font-size: 51px;
    opacity: 0;
    user-select: none;
    pointer-events: none;
  }
</style>
<g style="transform-origin:140px 125px;transform:scale(1)" class="ld-text">
<g transform="translate(140,125)">
  <g transform="scale(0.6375) translate(0,0)"><g class="path" style="opacity: 1; transform-origin: -171.8px -1.22px; transform: matrix3d(0.91, 0, 0, 0, 0, 0.91, 0, 0, 0, 0, 0.91, 0, 0, 0, 0, 1); animation: 1s linear -0.586667s infinite normal forwards running animate-qsrv9hqbad8; transform-box: view-box;"><path d="M24.72 51.01L24.72 51.01Q33.12 51.01 37.80 47.57Q42.48 44.13 42.48 38.45L42.48 38.45Q42.48 34.37 40.44 31.25Q38.40 28.13 35.36 26.09Q32.32 24.05 29.16 22.05Q26 20.05 23.28 17.01Q20.56 13.97 19.68 10.13L19.68 10.13Q12.40 7.97 10.08 1.09L10.08 1.09Q9.20-1.55 9.20-4.43Q9.20-7.31 10.08-10.43L10.08-10.43Q11.92-16.59 16.08-19.71L16.08-19.71L16.96-18.43Q13.20-15.71 11.52-9.95L11.52-9.95Q10.72-7.07 10.72-4.43Q10.72-1.79 11.52 0.61L11.52 0.61Q13.44 6.45 19.44 8.45L19.44 8.45Q19.28 7.57 19.28 5.73L19.28 5.73Q19.28-4.75 26.88-11.23Q34.48-17.71 45.44-17.71L45.44-17.71Q52.64-17.71 56.96-13.79L56.96-13.79Q60.64-10.35 60.64-5.35Q60.64-0.35 57.28 3.29Q53.92 6.93 48.24 6.93L48.24 6.93Q45.12 6.93 43.12 5.73L43.12 5.73Q39.04 8.85 33.44 10.21L33.44 10.21Q35.04 11.73 40.92 15.81Q46.80 19.89 49.72 23.61Q52.64 27.33 52.64 32.29L52.64 32.29Q52.64 41.41 45.56 47.09Q38.48 52.77 27.64 52.77Q16.80 52.77 11.28 47.97L11.28 47.97Q6.48 43.89 6.48 38.01Q6.48 32.13 10.28 27.93Q14.08 23.73 19.76 23.73Q25.44 23.73 28.16 26.25Q30.88 28.77 30.88 32.37Q30.88 35.97 28.68 38.77Q26.48 41.57 22.96 41.57Q19.44 41.57 17.36 39.33L17.36 39.33Q15.44 37.41 15.20 34.53L15.20 34.53Q15.12 33.73 15.20 33.57L15.20 33.57L16.72 33.65Q16.64 36.45 18.48 38.29L18.48 38.29Q20 39.97 22.92 39.97Q25.84 39.97 27.60 37.69Q29.36 35.41 29.36 32.41Q29.36 29.41 27.28 27.57L27.28 27.57Q24.96 25.25 19.84 25.25Q14.72 25.25 11.36 28.97Q8 32.69 8 37.93Q8 43.17 12.32 46.85L12.32 46.85Q14.88 49.09 17.56 50.05Q20.24 51.01 24.72 51.01 zM38.32-4.03L38.32-4.03Q38.32-7.55 40.12-9.87Q41.92-12.19 45.04-12.19L45.04-12.19Q50.40-12.19 50.40-6.31Q50.40-0.43 44.56 4.77L44.56 4.77Q46.32 5.57 48.24 5.57L48.24 5.57Q53.20 5.57 56.16 2.33Q59.12-0.91 59.12-5.27Q59.12-9.63 55.92-12.67L55.92-12.67Q52-16.19 45.60-16.19Q39.20-16.19 34.72-13.07L34.72-13.07Q27.76-8.11 27.76-0.27L27.76-0.27Q27.76 6.21 32.08 9.17L32.08 9.17Q37.44 7.97 42 4.85L42 4.85Q38.32 1.57 38.32-4.03 zM44.96-10.75L44.96-10.75Q42.56-10.75 41.24-8.91Q39.92-7.07 39.92-4.03L39.92-4.03Q39.92 1.17 43.20 3.89L43.20 3.89Q45.60 2.21 47.20-0.67Q48.80-3.55 48.80-6.35L48.80-6.35Q48.80-10.75 44.96-10.75" style="fill: rgb(12, 56, 102);" transform="translate(-205.360,-17.747)"></path></g><g class="path" style="opacity: 1; transform-origin: -115.68px 2.54px; transform: matrix3d(0.91, 0, 0, 0, 0, 0.91, 0, 0, 0, 0, 0.91, 0, 0, 0, 0, 1); animation: 1s linear -0.513333s infinite normal forwards running animate-qsrv9hqbad8; transform-box: view-box;"><path d="M92 34.61L92 34.61Q93.92 34.61 96 32.37L96 32.37L97.20 33.33Q96.64 34.45 94.72 35.33Q92.80 36.21 90.48 36.21L90.48 36.21Q83.20 36.21 83.20 29.65L83.20 29.65Q83.20 26.85 84.64 19.65Q86.08 12.45 86.08 10.21L86.08 10.21Q86.08 6.77 82.80 6.77L82.80 6.77Q77.84 6.77 74.48 19.49L74.48 19.49L71.60 35.49L62 35.49L67.28 5.97Q64.88 6.21 63.28 8.21L63.28 8.21L62.08 7.25Q64.48 4.37 68.12 4.37Q71.76 4.37 73.76 6.21Q75.76 8.05 75.76 11.41L75.76 11.41L75.76 11.65Q78.88 4.37 85.20 4.37L85.20 4.37Q89.68 4.37 92.28 6.81Q94.88 9.25 95.12 13.65L95.12 13.65Q96.64 9.25 98.96 6.81Q101.28 4.37 105.68 4.37Q110.08 4.37 112.72 7.05Q115.36 9.73 115.36 14.45L115.36 14.45Q115.36 16.93 113.84 24.01Q112.32 31.09 112.16 34.61L112.16 34.61Q114.08 34.61 116.16 32.37L116.16 32.37L117.36 33.33Q116.80 34.45 114.88 35.33Q112.96 36.21 110.64 36.21L110.64 36.21Q103.36 36.21 103.36 29.65L103.36 29.65Q103.36 26.85 104.80 19.65Q106.24 12.45 106.24 10.21L106.24 10.21Q106.24 6.77 102.96 6.77L102.96 6.77Q97.20 6.77 93.68 23.89L93.68 23.89Q92.16 31.17 92 34.61" style="fill: rgb(72, 188, 42);" transform="translate(-205.360,-17.747)"></path></g><g class="path" style="opacity: 1; transform-origin: -66.96px 2.54px; transform: matrix3d(0.91, 0, 0, 0, 0, 0.91, 0, 0, 0, 0, 0.91, 0, 0, 0, 0, 1); animation: 1s linear -0.44s infinite normal forwards running animate-qsrv9hqbad8; transform-box: view-box;"><path d="M149.36 36.21L149.36 36.21Q142.32 36.21 141.68 30.05L141.68 30.05Q138.16 36.21 132.80 36.21Q127.44 36.21 124.28 32.97Q121.12 29.73 121.12 23.89L121.12 23.89Q121.12 14.77 125.60 9.57Q130.08 4.37 137.20 4.37L137.20 4.37Q143.04 4.37 144.96 9.89L144.96 9.89Q145.36 7.49 145.84 5.09L145.84 5.09Q151.76 5.09 154.64 4.61L154.64 4.61L155.68 4.37L150.16 34.61Q152.56 34.37 154.16 32.37L154.16 32.37L155.36 33.33Q152.96 36.21 149.36 36.21 zM130.16 27.97Q130.16 31.57 131.08 32.97Q132 34.37 133.92 34.37Q135.84 34.37 137.84 32.29L137.84 32.29Q140.48 29.57 142.08 25.41L142.08 25.41Q142.32 24.37 143 20.41Q143.68 16.45 144.16 13.89L144.16 13.89Q143.92 10.85 142.48 8.61Q141.04 6.37 138.88 6.37L138.88 6.37Q134.96 6.37 132.56 13.37Q130.16 20.37 130.16 27.97L130.16 27.97" style="fill: rgb(34, 34, 34);" transform="translate(-205.360,-17.747)"></path></g><g class="path" style="opacity: 1; transform-origin: -30.48px 2.18px; transform: matrix3d(0.91, 0, 0, 0, 0, 0.91, 0, 0, 0, 0, 0.91, 0, 0, 0, 0, 1); animation: 1s linear -0.366667s infinite normal forwards running animate-qsrv9hqbad8; transform-box: view-box;"><path d="M161.52 8.21L160.32 7.25Q162.72 4.37 166.36 4.37Q170 4.37 172 6.21Q174 8.05 174 11.41L174 11.41L174 11.89Q177.60 4.37 183.36 4.37L183.36 4.37Q189.52 4.37 189.52 10.77L189.52 10.77Q189.52 13.41 187.76 16.37Q186 19.33 184.24 22.01Q182.48 24.69 182.48 26.77L182.48 26.77L180.56 26.77Q180.56 23.81 184 18.77Q187.44 13.73 187.44 10.97Q187.44 8.21 186.36 7.21Q185.28 6.21 183.16 6.21Q181.04 6.21 179 8.05Q176.96 9.89 175.60 12.69L175.60 12.69Q173.44 16.85 172.72 19.49L172.72 19.49L172.72 19.57L169.84 35.49L160.24 35.49L165.52 5.97Q163.12 6.21 161.52 8.21L161.52 8.21" style="fill: rgb(59, 191, 41);" transform="translate(-205.360,-17.747)"></path></g><g class="path" style="opacity: 1; transform-origin: -1.6px -3.38px; transform: matrix3d(0.91, 0, 0, 0, 0, 0.91, 0, 0, 0, 0, 0.91, 0, 0, 0, 0, 1); animation: 1s linear -0.293333s infinite normal forwards running animate-qsrv9hqbad8; transform-box: view-box;"><path d="M192.08 5.09L196.16 5.09L198.32-6.75Q204.24-6.75 207.12-7.23L207.12-7.23L208.16-7.47Q207.04-1.87 205.68 5.09L205.68 5.09L215.60 5.09L215.44 6.53L205.44 6.53Q201.44 27.17 201.44 31.41L201.44 31.41Q201.44 33.97 204.16 33.97Q206.88 33.97 209.12 30.53Q211.36 27.09 212.32 23.09L212.32 23.09L213.76 23.57Q210.80 36.21 201.52 36.21L201.52 36.21Q197.68 36.21 195.12 34.09Q192.56 31.97 192.56 28.17Q192.56 24.37 195.84 6.53L195.84 6.53L191.92 6.53L192.08 5.09" style="fill: rgb(0, 124, 192);" transform="translate(-205.360,-17.747)"></path></g><g class="path" style="opacity: 1; transform-origin: 64.12px 0.02px; transform: matrix3d(0.91, 0, 0, 0, 0, 0.91, 0, 0, 0, 0, 0.91, 0, 0, 0, 0, 1); animation: 1s linear -0.22s infinite normal forwards running animate-qsrv9hqbad8; transform-box: view-box;"><path d="M314.48 42.05L315.52 43.41Q312.48 46.45 307.64 46.45Q302.80 46.45 299.92 43.29Q297.04 40.13 297.04 34.97Q297.04 29.81 298.88 23.09L298.88 23.09L302.48 11.25Q295.76 19.73 290.16 27.49L290.16 27.49Q279.12 42.77 275.20 47.97L275.20 47.97L273.76 47.57L270.64 8.85L264.24 20.53Q255.12 37.73 249 43.21Q242.88 48.69 232.72 48.69L232.72 48.69Q224.08 48.69 218.40 42.53L218.40 42.53Q213.92 37.49 213.92 30.45L213.92 30.45Q213.92 29.17 214.08 27.81L214.08 27.81L215.68 27.97Q215.52 29.25 215.52 30.45L215.52 30.45Q215.52 36.93 219.60 41.41L219.60 41.41Q224.80 47.09 232.72 47.09L232.72 47.09Q242.24 47.09 248.08 41.77Q253.92 36.45 262.80 19.81L262.80 19.81L277.20-6.35Q268.72-6.51 260.76-9.03Q252.80-11.55 246.52-11.55Q240.24-11.55 236-7.15Q231.76-2.75 231.76 4.21L231.76 4.21L230.16 4.21Q230.16-3.47 234.84-8.31Q239.52-13.15 246.96-13.15L246.96-13.15Q252.96-13.15 261.24-10.55Q269.52-7.95 279.12-7.95L279.12-7.95L282.48 35.25L284.08 33.01Q300.96 9.81 310.16-0.15Q319.36-10.11 325.04-10.11L325.04-10.11L325.04-8.51Q322.56-8.51 318.72-5.79L318.72-5.79Q318.16-4.03 314.96 6.41Q311.76 16.85 309.24 24.65Q306.72 32.45 306.72 37.41Q306.72 42.37 308.48 44.77L308.48 44.77Q310.16 44.77 311.64 44.09Q313.12 43.41 313.84 42.69L313.84 42.69L314.48 42.05" style="fill: rgb(11, 29, 98);" transform="translate(-205.360,-17.747)"></path></g><g class="path" style="opacity: 1; transform-origin: 132.24px 2.54px; transform: matrix3d(0.91, 0, 0, 0, 0, 0.91, 0, 0, 0, 0, 0.91, 0, 0, 0, 0, 1); animation: 1s linear -0.146667s infinite normal forwards running animate-qsrv9hqbad8; transform-box: view-box;"><path d="M341.12 4.37L341.12 4.37Q351.28 4.37 351.28 12.45L351.28 12.45Q351.28 17.49 346.52 20.09Q341.76 22.69 332.96 22.77L332.96 22.77Q332.80 25.65 332.80 27.33L332.80 27.33Q332.80 30.93 334.44 32.65Q336.08 34.37 338.56 34.37Q341.04 34.37 343.08 33.41Q345.12 32.45 346.32 31.13Q347.52 29.81 348.40 28.37L348.40 28.37Q350 25.73 350 25.01L350 25.01L351.44 25.65Q351.20 26.93 350 29.05Q348.80 31.17 347.36 32.53Q345.92 33.89 343.12 35.05Q340.32 36.21 336.88 36.21L336.88 36.21Q330.40 36.21 327.08 33.13Q323.76 30.05 323.76 24.69L323.76 24.69Q323.76 15.17 328.48 9.77Q333.20 4.37 341.12 4.37 zM349.28 12.45Q349.28 9.81 347.72 8.09Q346.16 6.37 343.08 6.37Q340 6.37 337.08 10.05Q334.16 13.73 333.20 20.93L333.20 20.93Q349.28 20.85 349.28 12.45L349.28 12.45" style="fill: rgb(12, 56, 102);" transform="translate(-205.360,-17.747)"></path></g><g class="path" style="opacity: 1; transform-origin: 167.52px 2.54px; transform: matrix3d(0.91, 0, 0, 0, 0, 0.91, 0, 0, 0, 0, 0.91, 0, 0, 0, 0, 1); animation: 1s linear -0.0733333s infinite normal forwards running animate-qsrv9hqbad8; transform-box: view-box;"><path d="M383.84 36.21L383.84 36.21Q376.80 36.21 376.16 30.05L376.16 30.05Q372.64 36.21 367.28 36.21Q361.92 36.21 358.76 32.97Q355.60 29.73 355.60 23.89L355.60 23.89Q355.60 14.77 360.08 9.57Q364.56 4.37 371.68 4.37L371.68 4.37Q377.52 4.37 379.44 9.89L379.44 9.89Q379.84 7.49 380.32 5.09L380.32 5.09Q386.24 5.09 389.12 4.61L389.12 4.61L390.16 4.37L384.64 34.61Q387.04 34.37 388.64 32.37L388.64 32.37L389.84 33.33Q387.44 36.21 383.84 36.21 zM364.64 27.97Q364.64 31.57 365.56 32.97Q366.48 34.37 368.40 34.37Q370.32 34.37 372.32 32.29L372.32 32.29Q374.96 29.57 376.56 25.41L376.56 25.41Q376.80 24.37 377.48 20.41Q378.16 16.45 378.64 13.89L378.64 13.89Q378.40 10.85 376.96 8.61Q375.52 6.37 373.36 6.37L373.36 6.37Q369.44 6.37 367.04 13.37Q364.64 20.37 364.64 27.97L364.64 27.97" style="fill: rgb(72, 188, 42);" transform="translate(-205.360,-17.747)"></path></g><g class="path" style="opacity: 1; transform-origin: 200.52px -7.82px; transform: matrix3d(0.91, 0, 0, 0, 0, 0.91, 0, 0, 0, 0, 0.91, 0, 0, 0, 0, 1); animation: 1s linear 0s infinite normal forwards running animate-qsrv9hqbad8; transform-box: view-box;"><path d="M408.96 32.61Q407.92 33.97 406.12 35.09Q404.32 36.21 401.44 36.21Q398.56 36.21 396.56 34.37Q394.56 32.53 394.56 29.17L394.56 29.17Q394.56 28.53 394.72 27.09L394.72 27.09L399.92-1.71Q401.36-9.63 403.88-12.99Q406.40-16.35 410.56-16.35L410.56-16.35Q413.44-16.35 415.32-14.19Q417.20-12.03 417.20-7.63Q417.20-3.23 413.80 4.93Q410.40 13.09 410.40 16.85L410.40 16.85L408.96 16.85Q408.96 12.61 412.32 4.73Q415.68-3.15 415.68-7.87L415.68-7.87Q415.68-10.75 414.36-12.83Q413.04-14.91 411.12-14.91L411.12-14.91Q411.04-12.83 408.36 3.77Q405.68 20.37 403.04 34.61L403.04 34.61Q405.28 34.61 407.20 32.29Q409.12 29.97 409.92 27.65L409.92 27.65L410.80 25.25L412.24 25.89Q412 27.01 411 29.13Q410 31.25 408.96 32.61" style="fill: rgb(34, 34, 34);" transform="translate(-205.360,-17.747)"></path></g></g><text dy="0.35em" fill="#0c3866" font-family="Sail" font-size="51">SmartMeal</text>
</g>
</g><style type="text/css">@keyframes animate-qsrv9hqbad8 { 0.00% {transform: translate(0.00px,0.00px) rotate(0.00deg) scale(0.91, 0.91) skew(0deg, 0.00deg) ;opacity: 1.00;}4.00% {transform: translate(0.00px,0.00px) rotate(0.00deg) scale(0.91, 0.91) ;}8.00% {animation-timing-function: cubic-bezier(0.69,0.60,0.35,0.27);transform: translate(0.00px,0.00px) rotate(0.00deg) scale(0.91, 0.91) ;}14.00% {transform: translate(0.00px,0.00px) rotate(0.00deg) scale(0.93, 0.93) ;}18.00% {transform: translate(0.00px,0.00px) rotate(0.00deg) scale(0.94, 0.94) ;}22.00% {animation-timing-function: cubic-bezier(0.67,0.66,0.34,0.33);transform: translate(0.00px,0.00px) rotate(0.00deg) scale(0.96, 0.96) ;}26.00% {transform: translate(0.00px,0.00px) rotate(0.00deg) scale(0.97, 0.97) ;}30.00% {transform: translate(0.00px,0.00px) rotate(0.00deg) scale(0.99, 0.99) ;}34.00% {animation-timing-function: cubic-bezier(0.65,0.71,0.32,0.38);transform: translate(0.00px,0.00px) rotate(0.00deg) scale(1.01, 1.01) ;}40.00% {animation-timing-function: cubic-bezier(0.64,0.74,0.31,0.41);transform: translate(0.00px,0.00px) rotate(0.00deg) scale(1.02, 1.02) ;}46.00% {animation-timing-function: cubic-bezier(0.60,0.91,0.23,0.63);transform: translate(0.00px,0.00px) rotate(0.00deg) scale(1.03, 1.03) ;}50.00% {transform: translate(0.00px,0.00px) rotate(0.00deg) scale(1.03, 1.03) ;}54.00% {transform: translate(0.00px,0.00px) rotate(0.00deg) scale(1.03, 1.03) ;}58.00% {animation-timing-function: cubic-bezier(0.69,0.60,0.35,0.27);transform: translate(0.00px,0.00px) rotate(0.00deg) scale(1.03, 1.03) ;}64.00% {transform: translate(0.00px,0.00px) rotate(0.00deg) scale(1.01, 1.01) ;}68.00% {transform: translate(0.00px,0.00px) rotate(0.00deg) scale(1.00, 1.00) ;}72.00% {animation-timing-function: cubic-bezier(0.67,0.66,0.34,0.33);transform: translate(0.00px,0.00px) rotate(0.00deg) scale(0.98, 0.98) ;}76.00% {animation-timing-function: cubic-bezier(0.66,0.68,0.33,0.35);transform: translate(0.00px,0.00px) rotate(0.00deg) scale(0.97, 0.97) ;}82.00% {animation-timing-function: cubic-bezier(0.65,0.71,0.32,0.38);transform: translate(0.00px,0.00px) rotate(0.00deg) scale(0.94, 0.94) ;}88.00% {animation-timing-function: cubic-bezier(0.65,0.73,0.31,0.40);transform: translate(0.00px,0.00px) rotate(0.00deg) scale(0.92, 0.92) ;}94.00% {animation-timing-function: cubic-bezier(0.63,0.80,0.28,0.48);transform: translate(0.00px,0.00px) rotate(0.00deg) scale(0.91, 0.91) ;}100.00% {animation-timing-function: cubic-bezier(0.63,0.80,0.28,0.48);transform: translate(0.00px,0.00px) rotate(0.00deg) scale(0.91, 0.91) ;} }</style><!-- [ldio] generated by https://loading.io --></svg>